<?xml version="1.0" standalone="no"?>
<!DOCTYPE svg PUBLIC "-//W3C//DTD SVG 20010904//EN"
 "http://www.w3.org/TR/2001/REC-SVG-20010904/DTD/svg10.dtd">
<svg version="1.0" xmlns="http://www.w3.org/2000/svg"
 width="112.000000pt" height="112.000000pt" viewBox="0 0 112.000000 112.000000"
 preserveAspectRatio="xMidYMid meet">
<metadata>
Created by potrace 1.11, written by Peter Selinger 2001-2013
</metadata>
<g transform="translate(0.000000,112.000000) scale(0.100000,-0.100000)"
fill="#3fe5b3" stroke="none">
<path d="M432 1106 c-203 -51 -370 -219 -417 -417 -66 -283 101 -575 382 -665
69 -22 215 -27 291 -9 249 59 430 285 430 539 0 101 -13 157 -58 251 -64 135
-181 238 -321 285 -81 27 -232 35 -307 16z m290 -74 c349 -125 450 -563 189
-822 -106 -105 -228 -152 -375 -146 -432 20 -634 542 -326 846 69 69 167 125
236 136 22 3 41 8 43 10 12 12 183 -6 233 -24z"/>
<path d="M491 909 c-32 -32 -40 -69 -18 -87 16 -13 33 -3 38 22 2 10 13 25 24
32 18 12 24 11 43 -2 30 -20 28 -57 -2 -74 -27 -14 -36 -30 -42 -70 -1 -13 -6
-26 -11 -27 -4 -2 -84 -49 -178 -106 l-170 -102 -3 -42 c-2 -32 2 -46 19 -62
22 -20 32 -21 371 -21 l349 0 24 25 c35 34 32 71 -9 109 -18 17 -50 40 -72 51
-107 56 -259 154 -262 169 -2 9 8 26 23 38 37 29 48 63 35 104 -25 76 -105 97
-159 43z m257 -359 c135 -78 164 -101 148 -118 -11 -11 -647 -8 -662 3 -8 6
-10 15 -6 21 4 6 81 55 171 108 148 86 167 95 185 83 12 -7 86 -51 164 -97z"/>
</g>
</svg>
