<?xml version="1.0" encoding="UTF-8"?>
  <!-- <metadata><?xpacket begin="﻿" id="W5M0MpCehiHzreSzNTczkc9d"?>
<x:xmpmeta xmlns:x="adobe:ns:meta/" x:xmptk="Adobe XMP Core 5.6-c138 79.159824, 2016/09/14-01:09:01        ">
   <rdf:RDF xmlns:rdf="http://www.w3.org/1999/02/22-rdf-syntax-ns#">
      <rdf:Description rdf:about=""/>
   </rdf:RDF>
</x:xmpmeta>

<?xpacket end="w"?></metadata> -->

<svg width="123px" height="38px" viewBox="0 0 123 38" version="1.1" xmlns="http://www.w3.org/2000/svg" xmlns:xlink="http://www.w3.org/1999/xlink">
    <!-- Generator: Sketch 48 (47235) - http://www.bohemiancoding.com/sketch -->
    <title>light_logo</title>
    <desc>Created with Sketch.</desc>
    <defs></defs>
    <g id="Artboard_1" data-name="Artboard 1" stroke="none" stroke-width="1" fill="none" fill-rule="evenodd">
        <g id="light_logo" fill="#FFFFFF">
            <path d="M80.9166919,23.7038832 C78.4199263,26.7657443 75.5071229,28.2966562 72.1782266,28.2966562 C70.3722279,28.2966562 68.9311616,27.8297013 67.8549844,26.8957773 C67.271765,26.3896502 66.8465818,25.7046064 66.5794323,24.8406387 C64.9758982,27.1446585 62.8343598,28.2966563 60.1547891,28.2966563 C59.1528309,28.2966563 58.25603,27.9379359 57.4643594,27.2204844 C56.6850586,26.5030329 56.2954141,25.3464689 56.2954141,23.7507578 C56.2954141,23.6887476 56.2961533,23.6259058 56.2976318,23.5622324 C53.7755849,26.7185279 50.8246695,28.2966562 47.4448281,28.2966562 C45.6388295,28.2966562 44.1977632,27.8297013 43.1215859,26.8957773 C42.5383665,26.3896502 42.1131834,25.7046064 41.8460338,24.8406387 C40.2424997,27.1446585 38.1009614,28.2966562 35.4213906,28.2966562 C34.4194325,28.2966562 33.5226316,27.9379359 32.7309609,27.2204844 C31.9516602,26.5030329 31.5620156,25.3464689 31.5620156,23.7507578 C31.5620156,23.6887476 31.5627549,23.6259058 31.5642334,23.5622324 C29.0421864,26.7185279 26.0912711,28.2966563 22.7114297,28.2966562 C20.9054311,28.2966562 19.4643648,27.8297013 18.3881875,26.8957773 C17.8342045,26.415022 17.4228104,25.7728384 17.1540029,24.9692203 C16.289494,26.2179637 15.2288864,27.1291887 13.9721719,27.7029062 C13.3413093,27.9997827 12.7290108,28.2224368 12.1352578,28.370875 L11.5600625,31.1169687 C11.0776382,33.5538299 10.1128041,35.3103227 8.66553125,36.3865 C7.60172385,37.1781706 6.38640397,37.574 5.01953516,37.574 C3.65266634,37.574 2.55176589,37.2678507 1.71680078,36.655543 C0.881835669,36.0432352 0.464359375,35.1186025 0.464359375,33.8816172 C0.464359375,31.8282215 1.81265318,30.2201647 4.50928125,29.0573984 C5.25147246,28.7357822 5.98128287,28.4574647 6.69873438,28.2224375 L10.7622109,9.074 L16.2358438,9.074 L12.4692422,26.7009531 C13.6443783,26.3051178 14.6030275,25.7175586 15.3452188,24.9382578 C15.8729787,24.3841098 16.3506963,23.6048023 16.7783784,22.6003219 C16.7754126,22.4906879 16.7739297,22.3793749 16.7739297,22.2663828 C16.7739297,19.3718371 17.5099249,16.5701073 18.9819375,13.8611094 C20.1075942,11.7953438 21.641433,10.3233533 23.5835,9.44509375 C24.5854581,8.97503932 25.6245102,8.74001563 26.7006875,8.74001563 C28.4572067,8.74001563 29.6508797,9.07090424 30.2817422,9.73269141 C30.9126047,10.3944786 31.2280313,11.2758174 31.2280313,12.3767344 C31.2280313,14.5414587 30.3559697,16.3814469 28.6118203,17.8967539 C26.867671,19.412061 24.8266758,20.2439211 22.4887734,20.3923594 C22.4269242,21.1098109 22.396,21.6169673 22.396,21.9138438 C22.396,23.2126784 22.6248389,24.0692779 23.0825234,24.483668 C23.540208,24.8980581 24.1834308,25.10525 25.0122109,25.10525 C26.4718537,25.10525 27.6995432,24.7805462 28.6953164,24.1311289 C29.6910896,23.4817116 30.7456038,22.5261547 31.8588906,21.2644297 L34.1411172,10.5954844 L32.8793984,10.5954844 L33.1948281,9.074 L34.4379922,9.074 L35.5883828,3.82302344 L41.2104531,3.06228125 L39.911625,9.074 L42.1938516,9.074 L41.8969766,10.5954844 L39.61475,10.5954844 L37.1840859,21.9880625 C37.0851271,22.4457471 37.0356484,22.89724 37.0356484,23.3425547 C37.0356484,24.1960746 37.5489897,24.6228281 38.5756875,24.6228281 C39.3178787,24.6228281 40.0074877,24.3012168 40.6445352,23.6579844 C40.984905,23.31431 41.2731876,22.9264989 41.509385,22.4945475 C41.5080138,22.4192689 41.5073281,22.343214 41.5073281,22.2663828 C41.5073281,19.3594672 42.2433234,16.5515526 43.7153359,13.8425547 C44.8286228,11.8015289 46.3562767,10.3357232 48.2983438,9.44509375 C49.3003019,8.97503932 50.3331692,8.74001563 51.3969766,8.74001563 C54.4399605,8.74001563 55.9614297,9.89039475 55.9614297,12.1911875 C55.9614297,13.1560361 55.763515,13.8641996 55.3676797,14.3156992 C54.9718444,14.7671989 54.5265363,14.9929453 54.0317422,14.9929453 C53.536948,14.9929453 53.0607158,14.8445093 52.6030313,14.5476328 C52.9122776,13.7312225 53.0668984,12.9828576 53.0668984,12.3025156 C53.0668984,11.2634479 52.7050856,10.7439219 51.9814492,10.7439219 C51.2578128,10.7439219 50.4939858,11.3995143 49.6899453,12.7107188 C48.5395489,14.5661968 47.7478902,16.8731399 47.3149453,19.6316172 C47.1912468,20.4603974 47.1293984,21.369568 47.1293984,22.3591562 C47.1293984,24.1898946 48.00146,25.10525 49.7456094,25.10525 C51.2052521,25.10525 52.4329416,24.7805462 53.4287148,24.1311289 C54.4244881,23.4817116 55.4790022,22.5261547 56.5922891,21.2644297 L60.6557656,2.22732031 L66.2778359,1.46657813 L61.9174844,21.9880625 C61.8185255,22.4457471 61.7690469,22.89724 61.7690469,23.3425547 C61.7690469,24.1960746 62.2823881,24.6228281 63.3090859,24.6228281 C64.0512771,24.6228281 64.7408861,24.3012168 65.3779336,23.6579844 C65.7183034,23.31431 66.006586,22.9264989 66.2427835,22.4945475 C66.2414122,22.4192689 66.2407266,22.343214 66.2407266,22.2663828 C66.2407266,19.3718371 66.9767218,16.5701073 68.4487344,13.8611094 C69.574391,11.7953438 71.1082299,10.3233533 73.0502969,9.44509375 C74.052255,8.97503932 75.0913071,8.74001563 76.1674844,8.74001563 C77.9240036,8.74001563 79.1176765,9.07090424 79.7485391,9.73269141 C80.3794016,10.3944786 80.6948281,11.2758174 80.6948281,12.3767344 C80.6948281,14.5414587 79.8227665,16.3814469 78.0786172,17.8967539 C76.3344678,19.412061 74.2934726,20.2439211 71.9555703,20.3923594 C71.893721,21.1098109 71.8627969,21.6169673 71.8627969,21.9138438 C71.8627969,23.2126784 72.0916357,24.0692779 72.5493203,24.483668 C73.0070049,24.8980581 73.6502276,25.10525 74.4790078,25.10525 C75.9386505,25.10525 77.1663401,24.7805462 78.1621133,24.1311289 C79.0103035,23.5779613 79.9011131,22.8026751 80.8345617,21.8052524 C80.861718,21.0033954 80.9450225,20.2015444 81.0844766,19.3996836 C81.2576545,18.4039104 81.5236024,17.4112445 81.8823281,16.4216563 C82.6739987,14.244562 83.8058234,12.4447753 85.2778359,11.0222422 C86.7498485,9.59970903 88.5248959,8.88845313 90.6030313,8.88845313 C91.6915784,8.88845313 92.4770523,9.07090573 92.9594766,9.43581641 C93.4419008,9.80072708 93.6831094,10.2614972 93.6831094,10.8181406 L93.6831094,11.0964609 L94.0913125,9.074 L99.5649453,9.074 L96.8374063,21.9880625 C96.7260776,22.4210074 96.6704141,22.8292064 96.6704141,23.2126719 C96.6704141,24.301219 97.1899401,24.8454844 98.2290078,24.8454844 C99.5679812,24.8454844 100.589764,23.6682929 101.294386,21.3138749 L103.888188,9.074 L109.36182,9.074 L108.953617,11.0407969 C110.190603,9.63063357 111.668778,8.9255625 113.388188,8.9255625 C114.600433,8.9255625 115.608561,9.25954354 116.412602,9.92751563 C117.216642,10.5954877 117.618656,11.5850612 117.618656,12.8962656 C117.618656,14.2074701 117.408372,15.6918303 116.987797,17.3493906 L116.078617,21.0232188 C115.8807,21.8272592 115.781742,22.4828516 115.781742,22.9900156 C115.781742,24.0785627 116.245605,24.6228281 117.173344,24.6228281 C118.026864,24.6228281 118.682456,24.3506954 119.140141,23.8064219 C119.597825,23.2621483 120.049318,22.4148261 120.494633,21.2644297 L122.090336,21.2644297 C120.618323,25.5320292 118.626807,27.8513419 116.115727,28.2224375 C115.719891,28.2719169 115.231289,28.2966562 114.649906,28.2966562 C114.068523,28.2966562 113.493334,28.1729596 112.92432,27.9255625 C111.340979,27.2575904 110.54932,25.9525904 110.54932,24.0105234 C110.54932,22.9714557 110.833823,21.3139202 111.402836,19.0378672 C111.971849,16.7618141 112.256352,15.1908663 112.256352,14.3249766 C112.256352,13.0261419 111.798674,12.3767344 110.883305,12.3767344 C109.967936,12.3767344 109.151537,13.10036 108.434086,14.5476328 C108.223798,14.955838 108.050623,15.401146 107.914555,15.8835703 L105.335453,28.074 L99.8618203,28.074 L100.294675,26.0314035 C98.9235651,27.5415763 97.2516155,28.2966563 95.2788125,28.2966563 C93.039869,28.2966563 91.7967174,27.1339075 91.5493203,24.808375 C89.8917599,27.1339075 87.9589993,28.2966563 85.7509805,28.2966563 C83.5429616,28.2966563 82.0431394,27.2143103 81.2514688,25.0495859 C81.0990466,24.6320818 80.9874545,24.1835156 80.9166919,23.7038832 Z M17.2192422,3.99001563 C17.2192422,4.83116566 16.9192777,5.53932916 16.3193398,6.11452734 C15.7194019,6.68972553 15.0050536,6.97732031 14.1762734,6.97732031 C13.3474933,6.97732031 12.6424222,6.68663312 12.0610391,6.10525 C11.4796559,5.52386688 11.1889688,4.81879581 11.1889688,3.99001563 C11.1889688,3.16123544 11.4765635,2.44688711 12.0517617,1.84694922 C12.6269599,1.24701132 13.3351234,0.947046875 14.1762734,0.947046875 C15.0174235,0.947046875 15.7348642,1.24391891 16.3286172,1.83767188 C16.9223702,2.43142484 17.2192422,3.14886559 17.2192422,3.99001563 Z M6.29053125,30.1335703 C3.80419069,30.9994601 2.56103906,32.0756212 2.56103906,33.3620859 C2.56103906,33.8692499 2.80224759,34.2465248 3.28467188,34.4939219 C3.44547997,34.568141 3.68050366,34.60525 3.98975,34.60525 C4.29899634,34.60525 4.65771671,34.3300249 5.06592188,33.7795664 C5.47412704,33.2291079 5.80192324,32.3786933 6.04932031,31.2282969 L6.29053125,30.1335703 Z M28.2963906,12.1169688 C28.2963906,11.2015996 27.9809641,10.7439219 27.3501016,10.7439219 C26.4223625,10.7686616 25.5255616,11.5881521 24.6596719,13.202418 C23.7937821,14.8166839 23.1691139,16.6071933 22.7856484,18.574 C24.2452912,18.4750412 25.5286442,17.7947094 26.6357461,16.5329844 C27.742848,15.2712593 28.2963906,13.7992688 28.2963906,12.1169688 Z M77.7631875,12.1169688 C77.7631875,11.2015996 77.447761,10.7439219 76.8168984,10.7439219 C75.8891594,10.7686616 74.9923585,11.5881521 74.1264688,13.202418 C73.260579,14.8166839 72.6359108,16.6071933 72.2524453,18.574 C73.712088,18.4750412 74.9954411,17.7947094 76.102543,16.5329844 C77.2096449,15.2712593 77.7631875,13.7992688 77.7631875,12.1169688 Z M93.3305703,12.6921641 C93.3305703,12.4571368 93.2223357,12.1571724 93.0058633,11.7922617 C92.7893908,11.427351 92.3286207,11.2448984 91.6235391,11.2448984 C90.9184574,11.2448984 90.2319408,11.6221733 89.5639688,12.3767344 C87.9558878,14.1951028 86.9477599,16.8051028 86.5395547,20.2068125 C86.4777054,20.7263463 86.4467813,21.2767966 86.4467813,21.8581797 C86.4467813,22.9838364 86.6818049,23.7693103 87.1518594,24.214625 C87.4239962,24.4867618 87.764162,24.6228281 88.1723672,24.6228281 C88.9269283,24.6228281 89.6134448,24.3228637 90.2319375,23.7229258 C90.8504302,23.1229879 91.2771837,22.3034974 91.5122109,21.2644297 L93.3305703,12.6921641 Z" id="jetclean"></path>
        </g>
    </g>
</svg>


